<svg height="512" viewBox="0 0 128 128" width="512" xmlns="http://www.w3.org/2000/svg"><g><g fill="#ecf7fd"><g><path d="m89.666 24.623h-51.332a1.75 1.75 0 0 1 0-3.5h51.332a1.75 1.75 0 0 1 0 3.5z"/><path d="m89.666 106.878h-51.332a1.75 1.75 0 1 1 0-3.5h51.332a1.75 1.75 0 0 1 0 3.5z"/></g><g><path d="m107.958 85.753a1.75 1.75 0 0 1 -1.75-1.75v-40.012a1.75 1.75 0 0 1 3.5 0v40.009a1.75 1.75 0 0 1 -1.75 1.753z"/><path d="m20.042 85.753a1.751 1.751 0 0 1 -1.75-1.753v-40.009a1.75 1.75 0 0 1 3.5 0v40.009a1.751 1.751 0 0 1 -1.75 1.753z"/></g><path d="m39.87 88.328a1.75 1.75 0 0 1 -1.2-3.028l4.3-4.027a1.75 1.75 0 0 1 2.392 2.556l-4.3 4.026a1.745 1.745 0 0 1 -1.192.473z"/><path d="m88.131 88.328a1.744 1.744 0 0 1 -1.2-.473l-4.3-4.026a1.75 1.75 0 1 1 2.39-2.556l4.3 4.027a1.75 1.75 0 0 1 -1.195 3.028z"/><path d="m44.172 47.2a1.745 1.745 0 0 1 -1.2-.473l-4.3-4.026a1.75 1.75 0 1 1 2.392-2.556l4.3 4.027a1.75 1.75 0 0 1 -1.2 3.028z"/><path d="m83.827 47.2a1.75 1.75 0 0 1 -1.195-3.028l4.3-4.027a1.75 1.75 0 1 1 2.394 2.555l-4.3 4.026a1.741 1.741 0 0 1 -1.199.474z"/></g><path d="m45.708 53.436v21.122l18.292 10.561v-21.119z" fill="#ffc178"/><path d="m82.292 53.436-18.292-10.561-18.292 10.561 18.292 10.564z" fill="#ffe278"/><path d="m64 64v21.119l18.292-10.561v-21.122z" fill="#ff936b"/><path d="m1.75 12.308v21.122l18.292 10.561v-21.118z" fill="#ffc178"/><path d="m38.334 12.308-18.292-10.561-18.292 10.561 18.292 10.565z" fill="#ffe278"/><path d="m20.042 22.873v21.118l18.292-10.561v-21.122z" fill="#ff936b"/><path d="m126.25 12.308v21.122l-18.292 10.561v-21.118z" fill="#ff936b"/><path d="m89.666 12.308 18.292-10.561 18.292 10.561-18.292 10.565z" fill="#ffe278"/><path d="m107.958 22.873v21.118l-18.292-10.561v-21.122z" fill="#ffc178"/><path d="m1.75 94.564v21.122l18.292 10.561v-21.119z" fill="#ffc178"/><path d="m38.334 94.564-18.292-10.561-18.292 10.561 18.292 10.564z" fill="#ffe278"/><path d="m20.042 105.128v21.119l18.292-10.561v-21.122z" fill="#ff936b"/><path d="m126.25 94.564v21.122l-18.292 10.561v-21.119z" fill="#ff936b"/><path d="m89.666 94.564 18.292-10.561 18.292 10.561-18.292 10.564z" fill="#ffe278"/><path d="m57.706 53.437 6.294-3.634 6.294 3.634-6.294 3.635z" fill="#3d444d"/><path d="m13.748 12.309 6.294-3.634 6.294 3.634-6.294 3.635z" fill="#3d444d"/><path d="m101.664 12.309 6.294-3.634 6.294 3.634-6.294 3.635z" fill="#3d444d"/><path d="m13.748 94.565 6.294-3.634 6.294 3.634-6.294 3.635z" fill="#3d444d"/><path d="m101.664 94.565 6.294-3.634 6.294 3.634-6.294 3.635z" fill="#3d444d"/><path d="m107.958 105.128v21.119l-18.292-10.561v-21.122z" fill="#ffc178"/></g></svg>