<?xml version="1.0" encoding="UTF-8"?>
<svg xmlns="http://www.w3.org/2000/svg" xmlns:xlink="http://www.w3.org/1999/xlink" width="512" height="512" viewBox="0 0 128 128"><defs><linearGradient id="a" x1="91.744" y1="91.744" x2="36.256" y2="36.256" gradientUnits="userSpaceOnUse"><stop offset="0" stop-color="#7d80e6"/><stop offset="1" stop-color="#ff3d7e"/></linearGradient></defs><path d="M98.021,65.562H95.583a1.75,1.75,0,0,0,0,3.5h2.438a5.062,5.062,0,0,0,0-10.124H90.5V54.749h7.52a5.062,5.062,0,1,0,0-10.123H90.5v-.367a6.767,6.767,0,0,0-6.76-6.76h-.367v-7.52a5.062,5.062,0,1,0-10.123,0V37.5H69.062v-7.52a5.062,5.062,0,0,0-10.124,0V37.5H48.126v-7.52a1.562,1.562,0,1,1,3.123,0v2.979a1.75,1.75,0,0,0,3.5,0V29.979a5.062,5.062,0,1,0-10.123,0V37.5h-.367a6.767,6.767,0,0,0-6.76,6.76v.367h-7.52a5.062,5.062,0,1,0,0,10.123H37.5v4.189h-7.52a5.062,5.062,0,0,0,0,10.124h9.27A1.75,1.75,0,0,0,41,67.312V44.259A3.263,3.263,0,0,1,44.259,41H83.741A3.263,3.263,0,0,1,87,44.259V83.741A3.263,3.263,0,0,1,83.741,87H44.259A3.263,3.263,0,0,1,41,83.741V75a1.749,1.749,0,0,0-1.75-1.75h-9.27a5.062,5.062,0,1,0,0,10.123H37.5v.367a6.767,6.767,0,0,0,6.76,6.76h.367v7.52a5.062,5.062,0,1,0,10.123,0V90.5h4.189v7.52a5.062,5.062,0,0,0,10.124,0V95.042a1.75,1.75,0,0,0-3.5,0v2.979a1.562,1.562,0,0,1-3.124,0V90.5H73.251v7.52a5.062,5.062,0,1,0,10.123,0V90.5h.367a6.767,6.767,0,0,0,6.76-6.76v-.367h7.52a5.062,5.062,0,1,0,0-10.123H90.5V62.438h7.52a1.562,1.562,0,0,1,0,3.124ZM29.979,51.249a1.562,1.562,0,1,1,0-3.123H37.5v3.123ZM28.417,64a1.563,1.563,0,0,1,1.562-1.562H37.5v3.124h-7.52A1.563,1.563,0,0,1,28.417,64ZM62.438,37.5v-7.52a1.562,1.562,0,0,1,3.124,0V37.5Zm14.313,0v-7.52a1.562,1.562,0,1,1,3.123,0V37.5ZM29.979,79.874a1.562,1.562,0,1,1,0-3.123H37.5v3.123Zm21.27,18.147a1.562,1.562,0,1,1-3.123,0V90.5h3.123Zm28.625,0a1.562,1.562,0,1,1-3.123,0V90.5h3.123ZM98.021,48.126a1.562,1.562,0,1,1,0,3.123H90.5V48.126Zm0,28.625a1.562,1.562,0,1,1,0,3.123H90.5V76.751Zm-47.868-8v-3h-2.57a1.75,1.75,0,0,1,0-3.5h2.57v-3h-2.57a1.75,1.75,0,0,1,0-3.5h2.57v-1.4a4.2,4.2,0,0,1,4.2-4.2h1.4v-2.57a1.75,1.75,0,0,1,3.5,0v2.57h3v-2.57a1.75,1.75,0,0,1,3.5,0V51.9A1.749,1.749,0,0,1,64,53.653H54.352a.7.7,0,0,0-.7.7v19.3a.7.7,0,0,0,.7.7h19.3a.7.7,0,0,0,.7-.7v-19.3a.7.7,0,0,0-.7-.7H70.5a1.749,1.749,0,0,1-1.75-1.75v-4.32a1.75,1.75,0,0,1,3.5,0v2.57h1.4a4.2,4.2,0,0,1,4.2,4.2v1.4h2.57a1.75,1.75,0,0,1,0,3.5h-2.57v3h2.57a1.75,1.75,0,0,1,0,3.5h-2.57v3h2.57a1.75,1.75,0,0,1,0,3.5h-2.57v1.4a4.2,4.2,0,0,1-4.2,4.2h-1.4v2.57a1.75,1.75,0,0,1-3.5,0v-2.57h-3v2.57a1.75,1.75,0,0,1-3.5,0v-2.57h-3v2.57a1.75,1.75,0,0,1-3.5,0v-2.57h-1.4a4.2,4.2,0,0,1-4.2-4.2v-1.4h-2.57a1.75,1.75,0,0,1,0-3.5Z" fill="url(#a)"/></svg>
