<svg id="Capa_1" enable-background="new 0 0 512 512" height="512" viewBox="0 0 512 512" width="512" xmlns="http://www.w3.org/2000/svg"><g><g><g><g><g><g><path d="m367 351c79.953 0 145-65.047 145-145 0-33.024-11.226-64.723-31.807-90.409l29.78-52.116c6.721-11.762-4.359-25.702-17.334-21.81l-84.523 25.357c-13.455-3.993-27.263-6.022-41.116-6.022-79.953 0-145 65.047-145 145s65.047 145 145 145z" fill="#00eed0"/></g></g></g></g></g><path d="m480.193 115.591 29.781-52.116c6.721-11.762-4.359-25.702-17.334-21.81l-84.523 25.357c-13.456-3.993-27.264-6.022-41.117-6.022v290c79.953 0 145-65.047 145-145 0-33.024-11.226-64.723-31.807-90.409z" fill="#00c6cb"/><g><g><path d="m417 191h-100c-8.284 0-15-6.716-15-15s6.716-15 15-15h100c8.284 0 15 6.716 15 15s-6.716 15-15 15z" fill="#0a617d"/></g><g><path d="m417 251h-100c-8.284 0-15-6.716-15-15s6.716-15 15-15h100c8.284 0 15 6.716 15 15s-6.716 15-15 15z" fill="#0a617d"/></g></g><g fill="#00465f"><path d="m417 161h-50v30h50c8.284 0 15-6.716 15-15s-6.716-15-15-15z"/><path d="m417 221h-50v30h50c8.284 0 15-6.716 15-15s-6.716-15-15-15z"/></g><g><g><g><g><g><path d="m145 161c-79.953 0-145 65.047-145 145 0 33.024 11.226 64.723 31.807 90.409l-29.78 52.116c-6.721 11.762 4.359 25.702 17.334 21.81l84.523-25.357c13.455 3.993 27.263 6.022 41.116 6.022 79.953 0 145-65.047 145-145s-65.047-145-145-145z" fill="#fff261"/><path d="m145 161v290c79.953 0 145-65.047 145-145s-65.047-145-145-145z" fill="#ffcd00"/><g><path d="m145 221c-24.813 0-45 20.187-45 45 0 8.284 6.716 15 15 15s15-6.716 15-15c0-8.271 6.729-15 15-15s15 6.729 15 15c0 5.307-2.851 10.273-7.44 12.961-14.126 8.275-22.56 22.287-22.56 37.482v9.557c0 8.284 6.716 15 15 15s15-6.716 15-15v-9.557c0-6.383 5.401-10.236 7.724-11.597 13.74-8.049 22.276-22.934 22.276-38.846 0-24.813-20.187-45-45-45z" fill="#0a617d"/><path d="m160 266c0 5.307-2.851 10.273-7.44 12.961-2.744 1.607-5.266 3.437-7.56 5.443v56.596c8.284 0 15-6.716 15-15v-9.557c0-6.383 5.401-10.236 7.724-11.597 13.74-8.049 22.276-22.934 22.276-38.846 0-24.813-20.187-45-45-45v30c8.271 0 15 6.729 15 15z" fill="#00465f"/><circle cx="145" cy="386" fill="#0a617d" r="15"/><path d="m160 386c0-8.284-6.716-15-15-15v30c8.284 0 15-6.716 15-15z" fill="#00465f"/></g></g></g></g></g></g></g></svg>