<?xml version="1.0" encoding="iso-8859-1"?>
<!-- Generator: Adobe Illustrator 16.0.0, SVG Export Plug-In . SVG Version: 6.00 Build 0)  -->
<!DOCTYPE svg PUBLIC "-//W3C//DTD SVG 1.1//EN" "http://www.w3.org/Graphics/SVG/1.1/DTD/svg11.dtd">
<svg version="1.1" id="Capa_1" xmlns="http://www.w3.org/2000/svg" xmlns:xlink="http://www.w3.org/1999/xlink" x="0px" y="0px"
	 width="30.501px" height="30.501px" viewBox="0 0 30.501 30.501" style="enable-background:new 0 0 30.501 30.501;"
	 xml:space="preserve">
<g>
	<path d="M29.293,27.911l-0.876-4.921c-0.231-1.311-1.434-2.551-2.733-2.825l-0.824-0.175v-8.763C24.859,3.09,20.557,0,15.25,0
		C9.943,0,5.642,3.09,5.642,11.227v8.763l-0.825,0.175c-1.301,0.274-2.501,1.519-2.733,2.823l-0.876,4.923
		c-0.122,0.682,0.04,1.327,0.454,1.823c0.415,0.494,1.023,0.767,1.715,0.767h23.75c0.69,0,1.3-0.271,1.715-0.767
		C29.253,29.238,29.415,28.593,29.293,27.911z M28.073,29.093c-0.223,0.265-0.559,0.408-0.948,0.408h-4.622v-2.522
		c0-0.275-0.225-0.5-0.5-0.5c-0.276,0-0.5,0.225-0.5,0.5v2.522H8.998v-2.522c0-0.275-0.224-0.5-0.5-0.5s-0.5,0.225-0.5,0.5v2.522
		H3.375c-0.391,0-0.727-0.146-0.948-0.408c-0.221-0.264-0.305-0.62-0.236-1.006l0.876-4.922c0.161-0.904,1.057-1.83,1.956-2.021
		l0.618-0.131l2.662-0.562l1.899,2.155l4.758,5.402c0.095,0.107,0.231,0.17,0.375,0.17c0.001,0,0.002,0,0.003,0
		c0.145-0.002,0.282-0.063,0.376-0.176l4.619-5.396l1.849-2.159l2.678,0.563l0.617,0.131c0.899,0.189,1.795,1.115,1.957,2.021
		l0.875,4.922C28.377,28.473,28.293,28.829,28.073,29.093z M9.752,14.673c-0.401,0.092-1.333-0.447-1.518-1.232
		c-0.188-0.801-0.01-1.549,0.399-1.672c0.122-0.033,0.248-0.006,0.373,0.062v-1.104h7.451l0.625-3.74v3.89h4.409v0.957
		c0.124-0.07,0.25-0.098,0.372-0.064c0.409,0.123,0.589,0.871,0.399,1.672c-0.185,0.777-1.107,1.316-1.509,1.234
		c-0.422,1.366-1.405,2.844-2.536,3.918c-0.152,0.146-0.308,0.283-0.465,0.412c-0.175,0.145-0.353,0.279-0.529,0.398l3.84,0.811
		l-2.049,2.395l-2.537,2.965l-0.646-2.965l-0.088-0.403l0.925-0.924l-1.163-1.16l-0.259-0.261l-0.26,0.261l-1.161,1.16l0.925,0.924
		l-0.088,0.403l-0.622,2.853l-2.51-2.853l-2.107-2.393l3.815-0.805c-0.179-0.119-0.356-0.255-0.531-0.398
		c-0.157-0.129-0.312-0.268-0.464-0.412C11.131,17.536,10.174,16.068,9.752,14.673z"/>
</g>
<g>
</g>
<g>
</g>
<g>
</g>
<g>
</g>
<g>
</g>
<g>
</g>
<g>
</g>
<g>
</g>
<g>
</g>
<g>
</g>
<g>
</g>
<g>
</g>
<g>
</g>
<g>
</g>
<g>
</g>
</svg>
